<?xml version="1.0" encoding="UTF-8"?>
<svg width="700pt" height="700pt" version="1.1" viewBox="0 0 700 700" xmlns="http://www.w3.org/2000/svg" xmlns:xlink="http://www.w3.org/1999/xlink">
 <defs>
  <symbol id="l" overflow="visible">
   <path d="m29.312-1.75c-1.5117 0.78125-3.0898 1.3711-4.7344 1.7656-1.6367 0.40625-3.3398 0.60938-5.1094 0.60938-5.3125 0-9.5273-1.4844-12.641-4.4531-3.1055-2.9688-4.6562-7-4.6562-12.094s1.5508-9.125 4.6562-12.094c3.1133-2.9688 7.3281-4.4531 12.641-4.4531 1.7695 0 3.4727 0.19922 5.1094 0.59375 1.6445 0.39844 3.2227 0.99219 4.7344 1.7812v6.5938c-1.5312-1.0391-3.0391-1.8008-4.5156-2.2812-1.4805-0.48828-3.0391-0.73438-4.6719-0.73438-2.9375 0-5.2461 0.94531-6.9219 2.8281-1.6797 1.875-2.5156 4.4648-2.5156 7.7656 0 3.293 0.83594 5.8828 2.5156 7.7656 1.6758 1.875 3.9844 2.8125 6.9219 2.8125 1.6328 0 3.1914-0.23828 4.6719-0.71875 1.4766-0.48828 2.9844-1.2539 4.5156-2.2969z"/>
  </symbol>
  <symbol id="d" overflow="visible">
   <path d="m21.453-17.406c-0.67969-0.3125-1.3516-0.53906-2.0156-0.6875-0.65625-0.15625-1.3203-0.23438-1.9844-0.23438-1.9688 0-3.4844 0.63281-4.5469 1.8906-1.0547 1.2617-1.5781 3.0703-1.5781 5.4219v11.016h-7.6562v-23.922h7.6562v3.9219c0.97656-1.5625 2.1016-2.7031 3.375-3.4219 1.2812-0.71875 2.8125-1.0781 4.5938-1.0781 0.25 0 0.52344 0.011719 0.82812 0.03125 0.30078 0.023438 0.73438 0.070312 1.2969 0.14062z"/>
  </symbol>
  <symbol id="c" overflow="visible">
   <path d="m27.562-12.031v2.1875h-17.891c0.1875 1.793 0.83203 3.1367 1.9375 4.0312 1.1133 0.89844 2.6719 1.3438 4.6719 1.3438 1.6016 0 3.25-0.23438 4.9375-0.70312 1.6875-0.47656 3.4219-1.2031 5.2031-2.1719v5.8906c-1.8047 0.6875-3.6094 1.2031-5.4219 1.5469-1.8125 0.35156-3.6211 0.53125-5.4219 0.53125-4.3359 0-7.7031-1.0977-10.109-3.2969-2.3984-2.207-3.5938-5.2969-3.5938-9.2656 0-3.9062 1.1758-6.9727 3.5312-9.2031 2.3633-2.2383 5.6094-3.3594 9.7344-3.3594 3.7578 0 6.7695 1.1367 9.0312 3.4062 2.2578 2.2617 3.3906 5.2812 3.3906 9.0625zm-7.8594-2.5312c0-1.457-0.42969-2.6289-1.2812-3.5156-0.84375-0.89453-1.9492-1.3438-3.3125-1.3438-1.4922 0-2.6992 0.41797-3.625 1.25-0.91797 0.83594-1.4922 2.0391-1.7188 3.6094z"/>
  </symbol>
  <symbol id="b" overflow="visible">
   <path d="m14.391-10.766c-1.5938 0-2.793 0.27344-3.5938 0.8125-0.80469 0.54297-1.2031 1.3398-1.2031 2.3906 0 0.96875 0.32031 1.7305 0.96875 2.2812 0.64453 0.54297 1.5469 0.8125 2.7031 0.8125 1.4375 0 2.6445-0.51562 3.625-1.5469 0.98828-1.0312 1.4844-2.3203 1.4844-3.875v-0.875zm11.688-2.8906v13.656h-7.7031v-3.5469c-1.0312 1.4492-2.1875 2.5078-3.4688 3.1719s-2.8398 1-4.6719 1c-2.4805 0-4.4961-0.72266-6.0469-2.1719-1.543-1.4453-2.3125-3.3203-2.3125-5.625 0-2.8125 0.96094-4.8672 2.8906-6.1719 1.9375-1.3125 4.9688-1.9688 9.0938-1.9688h4.5156v-0.60938c0-1.207-0.48047-2.0938-1.4375-2.6562-0.94922-0.5625-2.4375-0.84375-4.4688-0.84375-1.6367 0-3.1562 0.16797-4.5625 0.5-1.4062 0.32422-2.7188 0.8125-3.9375 1.4688v-5.8281c1.6445-0.40625 3.2891-0.70703 4.9375-0.90625 1.6562-0.20703 3.3047-0.3125 4.9531-0.3125 4.3203 0 7.4375 0.85547 9.3438 2.5625 1.9141 1.6992 2.875 4.4609 2.875 8.2812z"/>
  </symbol>
  <symbol id="a" overflow="visible">
   <path d="m12.031-30.719v6.7969h7.875v5.4688h-7.875v10.141c0 1.1172 0.21875 1.8711 0.65625 2.2656 0.4375 0.38672 1.3125 0.57812 2.625 0.57812h3.9375v5.4688h-6.5625c-3.0234 0-5.1641-0.62891-6.4219-1.8906-1.2617-1.2578-1.8906-3.3984-1.8906-6.4219v-10.141h-3.7969v-5.4688h3.7969v-6.7969z"/>
  </symbol>
  <symbol id="h" overflow="visible">
   <path d="m19.953-20.422v-12.812h7.6875v33.234h-7.6875v-3.4531c-1.0547 1.4062-2.2148 2.4375-3.4844 3.0938-1.2734 0.65625-2.7422 0.98438-4.4062 0.98438-2.9492 0-5.3711-1.1719-7.2656-3.5156-1.8867-2.3438-2.8281-5.3594-2.8281-9.0469s0.94141-6.7031 2.8281-9.0469c1.8945-2.3438 4.3164-3.5156 7.2656-3.5156 1.6562 0 3.1172 0.33594 4.3906 1 1.2812 0.65625 2.4453 1.6836 3.5 3.0781zm-5.0469 15.484c1.6445 0 2.8945-0.59766 3.75-1.7969 0.86328-1.1953 1.2969-2.9297 1.2969-5.2031 0-2.2812-0.43359-4.0195-1.2969-5.2188-0.85547-1.1953-2.1055-1.7969-3.75-1.7969-1.625 0-2.8711 0.60156-3.7344 1.7969-0.85547 1.1992-1.2812 2.9375-1.2812 5.2188 0 2.2734 0.42578 4.0078 1.2812 5.2031 0.86328 1.1992 2.1094 1.7969 3.7344 1.7969z"/>
  </symbol>
  <symbol id="g" overflow="visible">
   <path d="m16.406-4.9375c1.6328 0 2.8828-0.59766 3.75-1.7969 0.86328-1.1953 1.2969-2.9297 1.2969-5.2031 0-2.2812-0.43359-4.0195-1.2969-5.2188-0.86719-1.1953-2.1172-1.7969-3.75-1.7969-1.6367 0-2.8906 0.60547-3.7656 1.8125-0.875 1.1992-1.3125 2.9336-1.3125 5.2031 0 2.2617 0.4375 3.9961 1.3125 5.2031 0.875 1.1992 2.1289 1.7969 3.7656 1.7969zm-5.0781-15.484c1.0508-1.3945 2.2188-2.4219 3.5-3.0781 1.2812-0.66406 2.7539-1 4.4219-1 2.9453 0 5.3672 1.1719 7.2656 3.5156 1.8945 2.3438 2.8438 5.3594 2.8438 9.0469s-0.94922 6.7031-2.8438 9.0469c-1.8984 2.3438-4.3203 3.5156-7.2656 3.5156-1.668 0-3.1406-0.33594-4.4219-1s-2.4492-1.6914-3.5-3.0781v3.4531h-7.6562v-33.234h7.6562z"/>
  </symbol>
  <symbol id="f" overflow="visible">
   <path d="m0.53125-23.922h7.6562l6.4219 16.234 5.4688-16.234h7.6562l-10.062 26.188c-1.0117 2.6641-2.1953 4.5234-3.5469 5.5781-1.3438 1.0625-3.1211 1.5938-5.3281 1.5938h-4.4219v-5.0156h2.3906c1.3008 0 2.2422-0.21094 2.8281-0.625 0.59375-0.40625 1.0547-1.1484 1.3906-2.2188l0.20312-0.65625z"/>
  </symbol>
  <symbol id="e" overflow="visible">
   <path d="m2.5-23.922h20.875v5.3438l-12.609 13.109h12.609v5.4688h-21.406v-5.3438l12.594-13.109h-12.062z"/>
  </symbol>
  <symbol id="k" overflow="visible">
   <path d="m27.734-14.562v14.562h-7.7031v-11.156c0-2.0625-0.046875-3.4844-0.14062-4.2656-0.085937-0.78125-0.24219-1.3594-0.46875-1.7344-0.30469-0.5-0.71094-0.88281-1.2188-1.1562-0.51172-0.28125-1.0938-0.42188-1.75-0.42188-1.5938 0-2.8516 0.61719-3.7656 1.8438-0.90625 1.2305-1.3594 2.9375-1.3594 5.125v11.766h-7.6562v-23.922h7.6562v3.5c1.1445-1.3945 2.3633-2.4219 3.6562-3.0781 1.3008-0.66406 2.7383-1 4.3125-1 2.7578 0 4.8516 0.85156 6.2812 2.5469 1.4375 1.6875 2.1562 4.1523 2.1562 7.3906z"/>
  </symbol>
  <symbol id="j" overflow="visible">
   <path d="m3.4219-9.3125v-14.609h7.6875v2.3906c0 1.293-0.011719 2.918-0.03125 4.875-0.011719 1.9609-0.015625 3.2656-0.015625 3.9219 0 1.9297 0.046875 3.3125 0.14062 4.1562 0.10156 0.84375 0.28125 1.4609 0.53125 1.8438 0.3125 0.5 0.71875 0.88672 1.2188 1.1562 0.50781 0.27344 1.0938 0.40625 1.75 0.40625 1.5938 0 2.8438-0.60938 3.75-1.8281 0.91406-1.2266 1.375-2.9297 1.375-5.1094v-11.812h7.6406v23.922h-7.6406v-3.4531c-1.1562 1.3867-2.3828 2.4141-3.6719 3.0781-1.2812 0.66406-2.6992 1-4.25 1-2.7734 0-4.8828-0.84766-6.3281-2.5469-1.4375-1.6953-2.1562-4.1602-2.1562-7.3906z"/>
  </symbol>
  <symbol id="i" overflow="visible">
   <path d="m3.6719-33.234h7.6562v33.234h-7.6562z"/>
  </symbol>
 </defs>
 <g>
  <path d="m577.5 516.25h-455c-4.832 0-8.75-3.918-8.75-8.75v-245c0-4.832 3.918-8.75 8.75-8.75h455c2.3203 0 4.5469 0.92188 6.1875 2.5625s2.5625 3.8672 2.5625 6.1875v245c0 2.3203-0.92188 4.5469-2.5625 6.1875s-3.8672 2.5625-6.1875 2.5625zm-446.25-17.5h437.5v-227.5h-437.5z"/>
  <path d="m572.34 271.25h-346.06c-4.0664 0.14062-7.6914-2.543-8.75-6.4766-1.0391-3.8477 0.65234-7.9102 4.1133-9.8867l259.61-149.89c2.0156-1.168 4.418-1.4844 6.668-0.875 2.25 0.60547 4.1641 2.0859 5.3203 4.1133l86.711 149.89c1.5625 2.707 1.5625 6.043 0 8.75-1.5703 2.7188-4.4727 4.3867-7.6133 4.375zm-313.42-17.5h298.29l-74.637-129.06z"/>
  <path d="m226.27 271.25h-39.898c-3.1367 0.011719-6.043-1.6562-7.6133-4.375-1.5625-2.707-1.5625-6.043 0-8.75l118.74-205.62c1.1602-2.0273 3.082-3.5078 5.3359-4.1133 2.2461-0.60156 4.6406-0.28906 6.6523 0.875l138.77 80.148v0.003906c2.7422 1.5508 4.4375 4.4609 4.4375 7.6094 0 3.1523-1.6953 6.0586-4.4375 7.6133l-217.79 125.56c-1.293 0.69531-2.7344 1.0586-4.2031 1.0508zm-25.023-17.5h22.75l202.48-116.9-118.04-68.164z"/>
  <path d="m507.5 481.25h-315c-4.832 0-8.75-3.918-8.75-8.75 0-6.9609-2.7656-13.641-7.6875-18.562s-11.602-7.6875-18.562-7.6875c-4.832 0-8.75-3.918-8.75-8.75v-105c0-4.832 3.918-8.75 8.75-8.75 6.9609 0 13.641-2.7656 18.562-7.6875s7.6875-11.602 7.6875-18.562c0-4.832 3.918-8.75 8.75-8.75h315c2.3203 0 4.5469 0.92188 6.1875 2.5625s2.5625 3.8672 2.5625 6.1875c0 6.9609 2.7656 13.641 7.6875 18.562s11.602 7.6875 18.562 7.6875c2.3203 0 4.5469 0.92188 6.1875 2.5625s2.5625 3.8672 2.5625 6.1875v105c0 2.3203-0.92188 4.5469-2.5625 6.1875s-3.8672 2.5625-6.1875 2.5625c-6.9609 0-13.641 2.7656-18.562 7.6875s-7.6875 11.602-7.6875 18.562c0 2.3203-0.92188 4.5469-2.5625 6.1875s-3.8672 2.5625-6.1875 2.5625zm-307.12-17.5h299.25c1.7148-8.4062 5.8633-16.125 11.934-22.191 6.0664-6.0703 13.785-10.219 22.191-11.934v-89.25c-8.4062-1.7148-16.125-5.8633-22.191-11.934-6.0703-6.0664-10.219-13.785-11.934-22.191h-299.25c-1.7148 8.4062-5.8633 16.125-11.934 22.191-6.0664 6.0703-13.785 10.219-22.191 11.934v89.25c8.4062 1.7148 16.125 5.8633 22.191 11.934 6.0703 6.0664 10.219 13.785 11.934 22.191z"/>
  <path d="m531.82 271.25h-235.55c-4.0664 0.14062-7.6914-2.543-8.75-6.4766-1.0391-3.8477 0.65234-7.9102 4.1133-9.8867l146.39-84.523c2.0156-1.1641 4.4062-1.4805 6.6523-0.875 2.2578 0.60156 4.1797 2.082 5.3359 4.1133 3.4727 6.0312 9.2031 10.438 15.926 12.25 6.707 1.7852 13.848 0.83984 19.863-2.625 2-1.1953 4.3945-1.543 6.6484-0.96484 2.2344 0.65234 4.1367 2.1211 5.3398 4.1133l41.387 71.75c1.5625 2.707 1.5625 6.043 0 8.75-1.5234 2.6367-4.3047 4.2969-7.3516 4.375zm-202.91-17.5h187.77l-29.926-51.801c-8.1211 2.7148-16.863 2.9805-25.137 0.77344-8.2773-2.207-15.723-6.7969-21.414-13.199z"/>
  <path d="m227.5 271.25c-2.3242 0.011719-4.5625-0.89844-6.2109-2.5391-2.8164-2.8008-3.3906-7.1484-1.4023-10.586l73.414-127.23c1.1992-1.9883 3.1055-3.457 5.3359-4.1094 2.2578-0.57812 4.6523-0.23047 6.6523 0.96094 6.0234 3.457 13.172 4.3867 19.879 2.582 6.7109-1.8047 12.43-6.1953 15.906-12.207 1.1602-2.0273 3.082-3.5078 5.3398-4.1133 2.2461-0.55469 4.6211-0.24219 6.6484 0.875l60.727 35c2.7383 1.5547 4.4336 4.4609 4.4336 7.6133s-1.6953 6.0586-4.4336 7.6133l-181.91 105c-1.332 0.75391-2.8438 1.1484-4.375 1.1367zm77-124.77-53.551 91.699 140.53-80.676-40.773-23.449h-0.003906c-5.6992 6.418-13.156 11.016-21.449 13.223-8.293 2.2109-17.051 1.9336-25.188-0.79688z"/>
  <path d="m350 446.25c-16.246 0-31.824-6.4531-43.309-17.941-11.488-11.484-17.941-27.062-17.941-43.309s6.4531-31.824 17.941-43.309c11.484-11.488 27.062-17.941 43.309-17.941s31.824 6.4531 43.309 17.941c11.488 11.484 17.941 27.062 17.941 43.309s-6.4531 31.824-17.941 43.309c-11.484 11.488-27.062 17.941-43.309 17.941zm0-105c-11.602 0-22.73 4.6094-30.938 12.812-8.2031 8.207-12.812 19.336-12.812 30.938s4.6094 22.73 12.812 30.938c8.207 8.2031 19.336 12.812 30.938 12.812s22.73-4.6094 30.938-12.812c8.2031-8.207 12.812-19.336 12.812-30.938s-4.6094-22.73-12.812-30.938c-8.207-8.2031-19.336-12.812-30.938-12.812z"/>
  <use x="70" y="691.25" xlink:href="#l"/>
  <use x="102.109375" y="691.25" xlink:href="#d"/>
  <use x="123.683594" y="691.25" xlink:href="#c"/>
  <use x="153.355469" y="691.25" xlink:href="#b"/>
  <use x="182.878906" y="691.25" xlink:href="#a"/>
  <use x="203.792969" y="691.25" xlink:href="#c"/>
  <use x="233.464844" y="691.25" xlink:href="#h"/>
  <use x="280.011719" y="691.25" xlink:href="#g"/>
  <use x="311.328125" y="691.25" xlink:href="#f"/>
  <use x="355.078125" y="691.25" xlink:href="#a"/>
  <use x="375.992187" y="691.25" xlink:href="#c"/>
  <use x="405.664062" y="691.25" xlink:href="#e"/>
  <use x="431.128906" y="691.25" xlink:href="#b"/>
  <use x="460.652344" y="691.25" xlink:href="#d"/>
  <use x="497.460938" y="691.25" xlink:href="#a"/>
  <use x="518.375" y="691.25" xlink:href="#b"/>
  <use x="547.894531" y="691.25" xlink:href="#k"/>
  <use x="579.042969" y="691.25" xlink:href="#a"/>
  <use x="599.957031" y="691.25" xlink:href="#j"/>
  <use x="631.101562" y="691.25" xlink:href="#i"/>
  <use x="646.097656" y="691.25" xlink:href="#b"/>
  <use x="675.621094" y="691.25" xlink:href="#d"/>
 </g>
</svg>
